<?xml version="1.0" encoding="UTF-8" standalone="no"?>
<!-- Created with Inkscape (http://www.inkscape.org/) -->

<svg
   viewBox="0 0 199.13196 112.92938"
   version="1.1"
   id="svg1"
   xml:space="preserve"
   xmlns="http://www.w3.org/2000/svg"
   xmlns:svg="http://www.w3.org/2000/svg"><defs
     id="defs1" /><g
     id="layer1"
     transform="translate(-6.0527242,-26.675511)"><path
       style="fill:#6a2ab2;fill-opacity:1"
       d="m 50.509407,139.10202 c -25.631581,-7.09367 -20.56804,-45.088754 6.008903,-45.088754 25.766905,0 31.688112,35.677014 7.408333,44.637384 -2.809531,1.03685 -10.381334,1.29157 -13.417236,0.45137 z m 10.674682,-3.61192 c 14.815923,-3.83919 19.416002,-22.32922 8.150177,-32.75965 -12.105189,-11.207554 -32.023147,-2.30493 -31.994185,14.30026 0.02148,12.31394 11.942985,21.54325 23.844008,18.45939 z m -6.38557,-5.76592 v -5.13893 h 1.725388 1.725389 l -0.07174,5.06016 -0.07174,5.06016 -1.653646,0.0788 -1.653645,0.0788 z m -11.117075,-0.31494 -1.173085,-1.19529 3.609843,-3.60151 3.609842,-3.60151 1.319652,1.31966 1.319651,1.31965 -3.484316,3.47714 c -3.993805,3.98559 -3.669241,3.8432 -5.201587,2.28186 z m 20.415282,-2.33872 -3.526732,-3.53401 1.28145,-1.21766 1.281449,-1.21767 3.50573,3.49123 c 3.966566,3.95015 3.890451,3.78949 2.399771,5.06546 -1.408254,1.20541 -0.881471,1.48122 -4.941668,-2.58735 z m -9.775503,-4.11173 c -5.272695,-1.82115 -5.80283,-9.28913 -0.83801,-11.805 2.937063,-1.48832 6.634752,-0.55067 8.412489,2.13323 3.44381,5.1992 -1.659011,11.71494 -7.574479,9.67177 z m 3.62679,-3.27223 c 2.232045,-1.14709 2.231663,-4.47765 -6.46e-4,-5.63202 -1.66196,-0.85943 -3.738439,-0.0189 -4.427775,1.79224 -0.99089,2.60347 1.921063,5.12836 4.428421,3.83978 z m -19.289078,-2.84037 v -1.85208 h 5.09323 5.093229 v 1.85208 1.85208 h -5.093229 -5.09323 z m 25.532292,-0.005 v -1.85757 l 5.027083,0.0716 5.027083,0.0716 0.07823,1.78594 0.07823,1.78593 h -5.105317 -5.105318 z m -2.328334,-5.38963 -1.270001,-1.31328 3.55863,-3.55863 3.558631,-3.55863 0.905366,0.69056 c 2.079614,1.58619 2.06779,1.62029 -1.925133,5.55111 l -3.557493,3.50216 z m -15.78181,-2.39626 -3.55071,-3.55803 1.254346,-1.25435 1.254346,-1.25434 3.61678,3.61678 3.616779,3.61678 -1.173391,1.1956 c -1.470922,1.49876 -0.893737,1.77048 -5.01815,-2.36244 z m 8.778209,-5.17321 0.07152,-5.159384 h 1.5875 1.5875 l 0.07152,5.159384 0.07152,5.15937 h -1.730537 -1.730536 z m 65.291308,35.53104 c -1.88699,-0.69383 -1.53843,-3.93832 0.79445,-7.39499 0.92478,-1.37026 0.84906,-1.67772 -0.41319,-1.67772 -2.68047,0 0.38263,-3.44497 3.75448,-4.22253 1.59393,-0.36757 1.94071,-0.70373 4.65108,-4.50872 5.79084,-8.12953 8.94088,-12.82182 8.94607,-13.32602 0.0178,-1.72832 1.25913,-3.23973 3.58872,-4.36949 3.84978,-1.867 10.96146,-8.866504 9.99165,-9.834044 -0.12359,-0.1233 -1.83206,-0.63733 -3.79659,-1.14227 -1.96454,-0.50495 -3.88537,-1.03867 -4.26853,-1.18607 -0.53419,-0.20548 -2.90976,0.0618 -10.18646,1.1463 -12.48322,1.86039 -13.38581,2.08308 -15.7425,3.884 -1.34786,1.03 -2.41548,1.36284 -5.78585,1.80377 -1.23692,0.16183 -4.15395,0.58083 -6.48229,0.93111 -19.685169,2.961544 -18.907671,2.860124 -19.423194,2.533774 -0.530661,-0.33592 -1.367307,-6.240764 -0.962653,-6.794164 0.222894,-0.30483 4.754038,-1.0451 18.542497,-3.02936 21.77983,-3.13427 19.25142,-2.60894 19.64535,-4.08177 0.62835,-2.34934 -0.0319,-2.3514 -2.49969,-0.008 -3.05574,2.90199 -4.00785,1.78434 -2.53677,-2.97782 0.61877,-2.00308 0.29664,-2.196 -1.92827,-1.15484 -2.95024,1.38058 -3.3009,0.63116 -1.44222,-3.08236 2.56021,-5.11515 8.54935,-8.339 13.43072,-7.22952 2.48366,0.5645 2.58378,0.5477 2.50911,-0.42106 -0.0883,-1.14529 0.0659,-1.19721 3.45658,-1.16386 5.83377,0.0574 8.25643,-0.56862 14.71088,-3.80123 15.16151,-7.59341 23.98184,-7.98817 34.22258,-1.53168 2.31848,1.46173 2.31881,1.46184 3.83646,1.25671 1.56425,-0.21142 1.87637,-0.21722 5.85107,-0.10868 4.79986,0.13107 7.83828,-2.95571 7.83682,-7.96155 -0.001,-3.64271 -0.62222,-4.58404 -5.73376,-8.68917 -1.11668,-0.89681 -2.44245,-2.11204 -2.94614,-2.70049 -5.68855,-6.6458 -2.14707,-17.134021 4.41527,-13.07597 0.69857,0.43198 1.70593,1.04961 2.23858,1.37251 0.53264,0.32291 2.1287,0.96034 3.54678,1.41653 2.79334,0.89859 3.06538,1.29311 0.91178,1.32227 -2.47179,0.0335 -2.55367,0.36583 -0.21398,0.8686 3.00343,0.64541 2.69828,0.85925 -1.4902,1.04431 -7.53836,0.33306 -8.65465,2.08605 -3.82863,6.01241 4.34415,3.53431 4.89114,4.05327 5.8723,5.57132 4.84989,7.50372 0.36987,18.53883 -9.72209,23.9473 -2.4616,1.31922 -2.54801,1.49367 -2.71678,5.48485 -0.35418,8.37581 -5.54784,12.32823 -16.89507,12.85732 l -4.33767,0.20225 -1.16152,1.34817 c -0.63884,0.74149 -1.72626,1.69566 -2.41651,2.12037 -1.35403,0.83314 -3.38907,3.479254 -3.15164,4.097994 0.11316,0.2949 0.65434,0.19677 2.74589,-0.49789 15.49925,-5.147744 18.28478,-5.630964 19.83215,-3.440374 6.2023,8.780504 6.56523,9.422094 5.32853,9.420044 -0.98935,-0.002 -2.348,-0.97124 -4.32951,-3.08973 -2.02572,-2.16576 -2.48351,-2.27884 -2.48351,-0.61345 0,0.56491 -0.11806,1.10007 -0.26236,1.18925 -0.41245,0.25491 -1.58972,-1.09397 -1.58972,-1.82146 0,-2.45862 -0.69149,-2.51085 -7.18535,-0.54279 -8.44728,2.56008 -11.16305,3.48732 -12.6584,4.32194 -4.65163,2.59629 -6.13493,-1.64834 -2.76451,-7.91096 1.19699,-2.224144 1.26298,-2.381954 1.07478,-2.570164 -0.20517,-0.20517 -3.96506,1.04113 -5.45402,1.80785 -2.59933,1.338494 -9.11678,6.708494 -9.53835,7.859034 -0.5295,1.44511 -1.56648,2.54751 -3.15221,3.35106 -0.80896,0.40993 -1.75242,1.2607 -2.69936,2.43415 -3.20116,3.96693 -9.05712,11.88313 -10.96746,14.82603 -1.11303,1.71464 -2.88534,4.01049 -3.93846,5.10189 -3.055,3.16605 -3.07255,3.31522 -0.53137,4.51586 1.59418,0.75322 2.16639,1.33085 1.84058,1.85802 -0.15771,0.25518 -5.26456,0.30076 -5.93837,0.053 z M 90.24356,98.486986 c 0.285958,-0.75628 -0.142457,-1.48455 -0.873309,-1.48455 -1.249836,0 -1.73402,1.54576 -0.63892,2.03976 0.751181,0.33886 1.242358,0.15853 1.512229,-0.55521 z m 7.629125,-0.74372 c 0.491926,-0.49193 0.375076,-1.48515 -0.211667,-1.79917 -1.017254,-0.54441 -2.124715,0.58371 -1.577242,1.60667 0.305357,0.57057 1.303442,0.67797 1.788909,0.1925 z M 16.346132,109.53992 c -2.877386,-3.87292 -5.172429,-7.10086 -5.100095,-7.17319 0.09466,-0.0947 27.055778,-4.039244 27.621028,-4.041124 0.04171,-1.4e-4 -0.680481,0.86695 -1.604871,1.926874 -0.92439,1.05992 -1.906537,2.30943 -2.18255,2.77668 -0.337782,0.57182 -0.764583,0.89505 -1.305545,0.98874 -0.442038,0.0766 -4.554174,0.6759 -9.13808,1.33187 -9.13676,1.30749 -9.070864,1.2951 -8.388299,1.57674 0.261384,0.10785 4.260851,-0.35454 8.887705,-1.02753 4.626853,-0.67299 8.544161,-1.22362 8.705126,-1.22362 0.163805,0 -0.05922,0.78635 -0.506525,1.78593 -0.439555,0.98227 -0.9549,2.1472 -1.145212,2.58873 -0.342275,0.7941 -0.382889,0.80783 -3.750971,1.26821 -6.865121,0.93837 -8.868472,1.30256 -8.606469,1.56456 0.1657,0.1657 2.293781,-0.0364 6.008726,-0.57058 3.163688,-0.45493 5.777274,-0.79487 5.807968,-0.75544 0.0307,0.0394 -0.119822,1.14601 -0.334482,2.45905 l -0.39029,2.38734 -4.400409,0.59748 c -2.420226,0.32862 -4.522975,0.59377 -4.672777,0.58923 -0.149802,-0.005 -2.626592,-3.17702 -5.503978,-7.04995 z m 63.253921,-3.33078 c -0.547437,-1.18936 -0.904625,-2.24147 -0.79375,-2.33802 0.422613,-0.368 6.45945,-1.04498 6.954731,-0.77991 0.345362,0.18483 3.155928,-0.12354 9.680019,-1.06208 5.056347,-0.72739 9.280457,-1.32253 9.386917,-1.32253 0.25004,0 0.876,3.68691 0.66226,3.90066 -0.0891,0.0891 -5.36408,0.90601 -11.72225,1.81544 -6.358174,0.90944 -11.923077,1.71998 -12.366452,1.80122 -0.787773,0.14434 -0.828807,0.0984 -1.801475,-2.01478 z m -2.110284,-3.75781 c -0.313181,-0.45028 -1.090481,-1.43677 -1.727333,-2.19222 l -1.157913,-1.373534 0.878768,-0.15311 c 1.105186,-0.19257 7.964133,-1.1968 8.190133,-1.19913 0.09219,-9.6e-4 0.253053,0.79608 0.357478,1.77119 0.104426,0.975114 0.292224,2.042154 0.417331,2.371204 0.25724,0.6766 0.442775,0.61792 -3.930317,1.24289 l -2.458727,0.35139 z M 7.3388836,100.40895 C 6.715738,97.293216 6.328155,97.449996 19.149202,95.631506 c 6.000926,-0.85115 26.805619,-3.80812 46.23265,-6.57104 41.869798,-5.95475 38.013278,-5.68184 38.297708,-2.71019 l 0.12055,1.25945 -19.152048,2.72038 c -18.37461,2.60996 -19.197707,2.70427 -20.276916,2.32351 -6.455371,-2.27759 -14.821927,-1.30222 -21.050678,2.45408 l -2.412574,1.45492 -5.291667,0.75349 c -9.159394,1.30422 -27.8231519,3.919664 -27.9706588,3.919664 -0.077726,0 -0.215734,-0.37207 -0.3066846,-0.82682 z M 72.525602,97.106476 c -0.800365,-0.65929 -2.108639,-1.57508 -2.907275,-2.0351 l -1.452066,-0.8364 1.848941,-0.33515 c 1.016918,-0.18434 8.695035,-1.29022 17.062483,-2.45753 8.367448,-1.1673 15.466105,-2.17817 15.774805,-2.24636 0.48662,-0.1075 1.18401,1.51921 0.81115,1.89207 -0.0366,0.0366 -4.288675,0.67444 -9.449138,1.41751 -10.506522,1.51286 -10.576401,1.53588 -10.576401,3.48471 0,0.55671 -0.0893,1.01381 -0.198437,1.01576 -0.109141,0.002 -2.280835,0.29961 -4.825988,0.66146 -2.545153,0.36185 -4.628746,0.65336 -4.630208,0.64781 -0.0015,-0.006 -0.657502,-0.5495 -1.457866,-1.20878 z m -55.059056,-2.52276 c -0.01415,-0.0522 -0.584877,-3.96436 -1.268288,-8.69378 l -1.242564,-8.59896 2.103148,-0.20143 c 1.156731,-0.11078 2.154775,-0.14979 2.217875,-0.0867 0.118965,0.11896 2.431541,15.83109 2.442619,16.59565 0.0048,0.33019 -0.353734,0.4757 -1.515088,0.61493 -0.836745,0.10031 -1.789245,0.246 -2.116666,0.32375 -0.327422,0.0778 -0.606888,0.0987 -0.621036,0.0465 z m 6.486815,-2.24526 c -0.819699,-2.81966 0.205114,-4.50147 2.689228,-4.41326 1.572036,0.0558 1.829899,-0.29255 1.045479,-1.41247 -0.471382,-0.67299 -0.27209,-0.9302 0.559105,-0.72158 0.494139,0.12402 0.622179,0.0498 0.622179,-0.36069 0,-1.29391 2.098642,-1.82598 3.777631,-0.95774 0.787873,0.40742 0.806035,0.44777 0.287827,0.63947 -0.304211,0.11254 -0.855924,0.59154 -1.22603,1.06444 -0.767421,0.98059 -2.141442,1.19314 -2.707609,0.41886 -0.484462,-0.66254 -0.660985,-0.5381 -0.660985,0.46596 v 0.90692 l 1.432556,-0.14785 c 2.047608,-0.21133 2.800777,0.54278 2.800777,2.80428 0,1.97892 0.145391,1.89508 -4.43832,2.55937 l -3.776862,0.54736 z m 6.53724,-6.38238 c 0.335893,-0.42829 0.32344,-0.43391 -0.16604,-0.0749 -0.291042,0.21349 -0.578776,0.42185 -0.63941,0.46303 -0.06063,0.0412 0.01408,0.0749 0.166041,0.0749 0.151956,0 0.43969,-0.20836 0.639409,-0.46302 z m 7.301745,3.97815 c -1.910076,-2.89556 -2.043827,-3.26578 -2.043827,-5.65726 v -2.1684 l -1.637658,-2.67338 c -0.900712,-1.47036 -1.912743,-3.00994 -2.248958,-3.42128 -0.867236,-1.06104 -0.774076,-1.39877 0.626245,-2.27035 l 1.237545,-0.77027 0.4161,0.57134 c 0.228856,0.31424 0.632079,0.98807 0.896053,1.49739 1.640119,3.16452 3.726868,5.60068 5.340881,6.23517 1.9632,0.77177 2.687593,1.57358 5.16553,5.71763 2.226908,3.72424 2.396901,3.41183 -2.187553,4.02028 -1.928929,0.256 -3.703548,0.52149 -3.943598,0.58997 -0.309761,0.0884 -0.780233,-0.39665 -1.62076,-1.67084 z m 11.745355,-0.62994 c -0.781573,-2.24203 0.04214,-5.04316 2.049335,-6.96904 1.266469,-1.21516 1.099496,-1.31175 2.572711,1.48834 l 1.156773,2.19864 -0.150535,-1.32292 c -0.08279,-0.7276 -0.318407,-2.01714 -0.523584,-2.86564 -0.205177,-0.8485 -0.373049,-1.57881 -0.373049,-1.62292 0,-0.0946 2.523147,-1.09213 3.351648,-1.32511 0.714663,-0.20097 1.549326,0.83012 3.170417,3.91654 l 1.135402,2.16172 -0.0075,-1.05834 c -0.0065,-0.90887 -0.466087,-2.91009 -1.169771,-5.09323 -0.188747,-0.58557 -0.155271,-0.59531 2.046924,-0.59531 2.668435,0 2.623235,-0.0354 4.466113,3.50127 1.397524,2.68202 1.453308,2.65422 0.900456,-0.44878 -0.446702,-2.50721 -0.482299,-2.44366 0.963512,-1.71998 3.27024,1.63688 5.811779,6.7635 3.597514,7.25666 -0.327422,0.0729 -5.298281,0.7929 -11.046354,1.59993 -5.748073,0.80703 -10.764581,1.52995 -11.147796,1.60649 -0.598111,0.11945 -0.738581,0.0192 -0.992188,-0.70832 z m 27.467546,-3.87981 c 0.115155,-0.40152 0.508143,-1.32426 0.873306,-2.05052 1.120763,-2.22906 1.152999,-2.51095 0.287274,-2.5121 l -0.745434,-9.8e-4 0.859896,-0.52429 c 0.87939,-0.53618 1.120281,-1.03465 0.529167,-1.095 -0.181901,-0.0186 -0.602027,-0.062 -0.933613,-0.0965 -0.331586,-0.0345 -1.364633,-0.14081 -2.29566,-0.2362 -3.900947,-0.39966 -4.410119,-1.42794 -1.380891,-2.78872 2.008251,-0.90214 3.079539,-1.78592 4.486736,-3.70141 2.272369,-3.09317 3.328847,-2.90703 4.694827,0.82719 0.512658,1.40147 0.961454,2.0064 2.846351,3.83656 2.966428,2.8803 2.896464,3.13004 -0.810012,2.89142 -1.487824,-0.0958 -3.032556,-0.24649 -3.432738,-0.3349 -0.910819,-0.20123 -0.963649,0.26994 -0.132292,1.17985 l 0.595312,0.65157 -0.595049,-0.14665 c -0.954123,-0.23515 -0.964818,-0.0179 -0.173804,3.53073 0.150742,0.67625 0.126456,0.68799 -2.052841,0.99252 -2.973239,0.41547 -2.865841,0.43279 -2.620535,-0.42254 z m 14.834806,-1.55676 c -7.2e-5,-0.12471 -0.536159,-3.96698 -1.191304,-8.53839 -0.655145,-4.57141 -1.150659,-8.35216 -1.101142,-8.40168 0.215631,-0.21563 3.98159,-1.39731 4.094219,-1.28468 0.172015,0.17201 2.651014,17.42826 2.533563,17.63606 -0.05198,0.092 -0.890824,0.2525 -1.864092,0.35673 -0.973267,0.10423 -1.927422,0.25007 -2.120345,0.32411 -0.192922,0.074 -0.350826,0.0326 -0.350899,-0.0922 z m -80.121892,-9.09783 c -1.990897,-0.52153 -5.1174152,-1.92093 -5.6054131,-2.50893 -0.1943115,-0.23413 0.075428,-2.0689 0.9222325,-6.27301 0.6582796,-3.26815 1.196872,-6.19936 1.196872,-6.5138 0,-0.31444 0.1048682,-0.57172 0.2330404,-0.57172 0.4141266,0 84.0180952,-11.9282 84.5801312,-12.06748 0.471885,-0.11693 0.817072,0.3983 2.623491,3.9159 1.144061,2.2278 2.53828,4.91717 3.098264,5.97638 l 1.018153,1.92584 -0.995811,1.08116 c -5.285124,5.7381 -13.922945,7.32429 -21.178285,3.88904 l -1.66164,-0.78675 -1.337456,1.20249 c -5.421383,4.87429 -13.734974,6.08868 -20.018835,2.92421 l -1.778761,-0.89576 -1.058334,1.01022 c -5.430876,5.184 -13.194116,6.38689 -20.302813,3.14585 l -1.781981,-0.81245 -1.128436,1.03865 c -4.588277,4.22322 -10.954279,5.85788 -16.824419,4.32016 z M 9.9655567,55.955946 c -0.1963597,-0.56743 -2.569267,-17.7374 -2.4656477,-17.84102 0.050988,-0.051 0.9709681,-0.22897 2.0444002,-0.39552 l 1.9516948,-0.30282 4.717924,4.73836 c 2.594859,2.6061 4.717904,4.73174 4.717879,4.72365 -2.5e-5,-0.008 -0.29003,-1.97924 -0.644454,-4.38033 -0.354425,-2.4011 -0.681826,-4.77946 -0.727559,-5.28525 l -0.08315,-0.91961 2.116667,-0.30313 c 1.164166,-0.16672 2.146498,-0.27869 2.182958,-0.24881 0.06608,0.0541 2.339657,15.96414 2.496833,17.47229 l 0.08271,0.79362 -1.984375,0.31942 -1.984375,0.31943 -4.696354,-4.77115 c -2.981558,-3.02904 -4.696355,-4.59475 -4.696355,-4.28803 0,0.26571 0.295876,2.44764 0.657502,4.84873 0.80281,5.33042 0.801136,5.20206 0.0701,5.37565 -1.781089,0.42294 -3.635367,0.49428 -3.7564003,0.14452 z m 25.3416323,-3.37657 c -1.865196,-0.48026 -5.11492,-3.10082 -5.11492,-4.12464 0,-0.16405 0.854974,-0.67815 1.899943,-1.14245 l 1.899944,-0.84418 0.825348,0.90107 c 1.502516,1.64037 4.524651,1.79811 5.219788,0.27244 0.689703,-1.51373 -0.258437,-2.0905 -4.974487,-3.02606 -3.529765,-0.70023 -5.390998,-2.48171 -5.390998,-5.16 0,-5.70805 9.097974,-8.030693 12.989769,-3.31619 1.039953,1.25979 0.921621,1.50444 -1.173424,2.42603 l -1.800992,0.79224 -1.044041,-0.94323 c -1.2533,-1.13228 -2.660808,-1.27912 -3.78496,-0.39486 -1.579054,1.24209 -0.896214,1.88514 3.048099,2.87051 3.811429,0.95218 4.201412,1.11423 5.496102,2.28391 4.534336,4.0965 -1.497231,11.10431 -8.095171,9.40541 z m 14.871467,-2.18231 c -0.142739,-0.40445 -2.523887,-17.1489 -2.523887,-17.74819 0,-0.3259 4.205097,-1.225844 4.355764,-0.932184 0.168182,0.327797 2.509312,17.998654 2.406581,18.164874 -0.07476,0.12096 -0.861,0.30196 -1.747207,0.40222 -0.886207,0.10026 -1.780837,0.24736 -1.988065,0.32688 -0.207229,0.0795 -0.433663,-0.0166 -0.503186,-0.2136 z m 12.997445,-8.74293 c -1.15705,-8.1664 -0.631142,-7.24038 -3.855022,-6.78796 l -2.643785,0.37102 -0.134463,-0.93353 c -0.07395,-0.51344 -0.207572,-1.42821 -0.296928,-2.032813 -0.154307,-1.04407 -0.124967,-1.107149 0.584137,-1.255874 1.044198,-0.219006 13.878761,-2.010468 14.403591,-2.010468 0.55096,0 1.00296,3.656805 0.491102,3.973155 -0.17121,0.10581 -1.370743,0.33716 -2.665628,0.51412 -1.95763,0.26752 -2.354337,0.40087 -2.354337,0.79137 0,0.2583 0.416719,3.35979 0.926042,6.89219 0.509323,3.5324 0.926042,6.50784 0.926042,6.61209 0,0.17189 -3.16501,0.79624 -4.036376,0.79624 -0.272815,0 -0.605613,-1.7154 -1.344375,-6.92954 z m 15.037697,4.69515 c -0.167266,-0.61083 -2.536009,-17.938617 -2.46113,-18.003612 0.322612,-0.280021 13.074423,-1.871025 13.216553,-1.648989 0.217816,0.340275 0.577507,3.631144 0.41468,3.793971 -0.06688,0.06688 -2.051687,0.384943 -4.410673,0.706795 l -4.289064,0.585186 0.179585,1.455209 c 0.09877,0.80036 0.20425,1.48144 0.234396,1.5135 0.03015,0.0321 1.585876,-0.17673 3.457179,-0.46399 1.871302,-0.28725 3.421927,-0.49208 3.445834,-0.45517 0.115681,0.17862 0.677616,3.7136 0.602301,3.78891 -0.0476,0.0476 -1.614998,0.29714 -3.483117,0.55453 l -3.396579,0.46799 0.147177,1.42601 c 0.194739,1.88684 -0.109032,1.8109 4.618403,1.15465 2.290469,-0.31795 4.300271,-0.5781 4.466229,-0.5781 0.178416,0 0.375044,0.72993 0.481095,1.78594 0.09865,0.98227 0.200026,1.90063 0.22529,2.04081 0.06525,0.36205 -13.350264,2.23385 -13.448159,1.87636 z"
       id="path1" /></g></svg>
